<?xml version="1.0" encoding="utf-8"?>
<!-- Generator: Adobe Illustrator 16.0.0, SVG Export Plug-In . SVG Version: 6.00 Build 0)  -->
<!DOCTYPE svg PUBLIC "-//W3C//DTD SVG 1.1//EN" "http://www.w3.org/Graphics/SVG/1.1/DTD/svg11.dtd">
<svg version="1.1" id="Layer_1" xmlns="http://www.w3.org/2000/svg" xmlns:xlink="http://www.w3.org/1999/xlink" x="0px" y="0px"
	 width="100px" height="100px" viewBox="0 0 100 100" enable-background="new 0 0 100 100" xml:space="preserve">
<path fill="#2C798E" d="M50,0C22.386,0,0,22.386,0,50s22.386,50,50,50s50-22.386,50-50S77.614,0,50,0z M50,96
	C24.595,96,4,75.405,4,50S24.595,4,50,4s46,20.595,46,46S75.405,96,50,96z"/>
<g id="FroNpT_1_">
	<g>
		<path fill-rule="evenodd" clip-rule="evenodd" fill="#2C798E" d="M73.37,41.427c3.646-1.222,6.842-0.656,9.461,2.028
			c2.599,2.661,3.122,5.871,1.806,9.308c-1.244,3.247-4.402,5.313-7.934,5.333c-3.419,0.02-6.837,0.004-10.256,0.004
			c-4.266,0-8.531,0.002-12.797,0.001c-1.696-0.001-1.874-0.176-1.872-1.837c0.012-8.707,0.033-17.413,0.023-26.119
			c-0.001-0.83,0.286-1.278,1.064-1.562c8.888-3.235,18.25,2.181,20.15,10.993C73.145,40.168,73.245,40.768,73.37,41.427z"/>
		<path fill-rule="evenodd" clip-rule="evenodd" fill="#2C798E" d="M51.426,41.287c-0.119,5.162-0.236,10.324-0.356,15.486
			c-0.016,0.689-0.277,1.255-1.035,1.261c-0.739,0.007-0.896-0.556-0.958-1.207c-0.423-4.569-0.371-9.146-0.264-13.725
			c0.093-3.97,0.189-7.94,0.286-11.91c0.005-0.205,0.015-0.409,0.031-0.613c0.045-0.543,0.32-0.878,0.883-0.885
			c0.595-0.007,0.929,0.312,0.95,0.908c0.052,1.516,0.112,3.033,0.129,4.55c0.021,2.043,0.005,4.087,0.005,6.131
			C51.207,41.284,51.316,41.286,51.426,41.287z"/>
		<path fill-rule="evenodd" clip-rule="evenodd" fill="#2C798E" d="M48.423,45.876c-0.107,3.379-0.214,6.759-0.324,10.137
			c-0.007,0.204-0.024,0.409-0.053,0.611c-0.093,0.645-0.004,1.484-1,1.423c-0.95-0.061-0.859-0.851-0.882-1.525
			c-0.096-2.885-0.295-5.771-0.276-8.655c0.033-5.106,0.198-10.212,0.306-15.319c0.013-0.605,0.16-1.169,0.87-1.192
			c0.792-0.025,0.886,0.569,0.901,1.211c0.107,4.435,0.228,8.869,0.344,13.303C48.348,45.873,48.386,45.875,48.423,45.876z"/>
		<path fill-rule="evenodd" clip-rule="evenodd" fill="#2C798E" d="M45.419,49.701c-0.153,2.62-0.268,5.036-0.465,7.445
			c-0.027,0.322-0.418,0.784-0.729,0.874c-0.517,0.15-0.863-0.207-0.899-0.784c-0.092-1.453-0.269-2.905-0.269-4.357
			c0-3.964,0.066-7.927,0.123-11.891c0.027-1.867,0.09-3.732,0.142-5.598c0.015-0.541,0.045-1.113,0.781-1.13
			c0.769-0.018,0.854,0.53,0.87,1.137c0.118,4.461,0.244,8.923,0.373,13.384C45.357,49.157,45.406,49.533,45.419,49.701z"/>
		<path fill-rule="evenodd" clip-rule="evenodd" fill="#2C798E" d="M40.392,43.612c0-2.86,0-5.72,0.001-8.58
			c0-0.146,0.011-0.292,0.027-0.437c0.055-0.486,0.285-0.944,0.799-0.809c0.307,0.082,0.708,0.553,0.724,0.867
			c0.127,2.448,0.167,4.899,0.244,7.35c0.081,2.567,0.267,5.135,0.233,7.7c-0.034,2.533-0.261,5.066-0.473,7.593
			c-0.023,0.273-0.504,0.509-0.772,0.762c-0.261-0.298-0.736-0.586-0.75-0.894c-0.151-3.466-0.238-6.935-0.327-10.403
			c-0.026-1.049-0.004-2.1-0.004-3.15C40.193,43.612,40.293,43.612,40.392,43.612z"/>
		<path fill-rule="evenodd" clip-rule="evenodd" fill="#2C798E" d="M39.514,42.356c0,2.393,0.068,4.787-0.018,7.176
			c-0.094,2.622-0.31,5.24-0.534,7.854c-0.021,0.246-0.474,0.457-0.727,0.683c-0.221-0.289-0.625-0.571-0.636-0.868
			c-0.145-3.991-0.313-7.984-0.317-11.977c-0.004-3.587,0.19-7.175,0.289-10.763c0.014-0.524,0.026-1.058,0.724-1.058
			c0.639-0.001,0.688,0.491,0.705,0.991c0.087,2.654,0.184,5.309,0.277,7.962C39.356,42.356,39.435,42.356,39.514,42.356z"/>
		<path fill-rule="evenodd" clip-rule="evenodd" fill="#2C798E" d="M34.479,42.606c0.092-2.565,0.188-5.129,0.273-7.694
			c0.016-0.467,0.08-0.997,0.637-0.918c0.253,0.035,0.604,0.592,0.62,0.926c0.214,4.603,0.475,9.208,0.516,13.813
			c0.025,2.817-0.29,5.639-0.507,8.455c-0.023,0.305-0.408,0.582-0.625,0.872c-0.222-0.289-0.612-0.562-0.641-0.87
			c-0.383-4.035-0.576-8.079-0.345-12.134c0.046-0.813,0.007-1.632,0.007-2.449C34.435,42.606,34.457,42.606,34.479,42.606z"/>
		<path fill-rule="evenodd" clip-rule="evenodd" fill="#2C798E" d="M31.61,44.344c0.11-2.74,0.203-5.48,0.354-8.218
			c0.018-0.32,0.357-0.622,0.547-0.932c0.204,0.298,0.569,0.587,0.587,0.897c0.178,2.94,0.253,5.888,0.444,8.828
			c0.26,4.001,0.006,7.981-0.345,11.962c-0.019,0.202-0.006,0.436-0.104,0.597c-0.133,0.222-0.357,0.388-0.543,0.579
			c-0.204-0.204-0.557-0.389-0.586-0.615c-0.142-1.096-0.26-2.202-0.271-3.306c-0.033-3.264-0.012-6.528-0.012-9.792
			C31.658,44.344,31.634,44.344,31.61,44.344z"/>
		<path fill-rule="evenodd" clip-rule="evenodd" fill="#2C798E" d="M28.793,45.595c0.12-2.273,0.222-4.549,0.38-6.82
			c0.02-0.285,0.335-0.551,0.514-0.825c0.183,0.278,0.509,0.547,0.528,0.836c0.237,3.61,0.56,7.223,0.588,10.837
			c0.021,2.613-0.352,5.23-0.589,7.843c-0.019,0.208-0.341,0.388-0.522,0.582c-0.182-0.221-0.507-0.431-0.521-0.661
			c-0.188-3.112-0.35-6.227-0.476-9.342c-0.033-0.813,0.078-1.632,0.123-2.448C28.811,45.596,28.802,45.595,28.793,45.595z"/>
		<path fill-rule="evenodd" clip-rule="evenodd" fill="#2C798E" d="M28.011,49.995c-0.219,2.5-0.415,4.881-0.655,7.258
			c-0.025,0.249-0.311,0.473-0.476,0.708c-0.174-0.247-0.477-0.483-0.503-0.745c-0.208-2.118-0.491-4.24-0.503-6.363
			c-0.013-2.21,0.25-4.422,0.394-6.632c0.027-0.407,0.021-0.825,0.119-1.216c0.05-0.199,0.298-0.349,0.458-0.521
			c0.168,0.164,0.45,0.308,0.482,0.496c0.115,0.659,0.142,1.333,0.206,2.001C27.695,46.691,27.859,48.402,28.011,49.995z"/>
		<path fill-rule="evenodd" clip-rule="evenodd" fill="#2C798E" d="M42.822,61.108c1.351-0.181,1.355-0.181,1.357,0.953
			c0.003,1.803,0.001,3.605,0.001,5.387c-0.801,0.262-1.284,0.069-1.686-0.588c-0.663-1.084-1.412-2.116-2.263-3.376
			c0,1.493,0,2.752,0,4.045c-0.455,0-0.817,0-1.249,0c0-2.16,0-4.273,0-6.412c0.744-0.27,1.248-0.085,1.669,0.615
			c0.62,1.03,1.336,2.002,2.17,2.946C42.822,63.5,42.822,62.32,42.822,61.108z"/>
		<path fill-rule="evenodd" clip-rule="evenodd" fill="#2C798E" d="M25.178,49.957c-0.216,2.477-0.416,4.888-0.658,7.295
			c-0.021,0.202-0.326,0.378-0.499,0.566c-0.15-0.249-0.411-0.487-0.435-0.749c-0.167-1.771-0.412-3.547-0.39-5.317
			c0.037-2.996,0.241-5.991,0.412-8.984c0.016-0.275,0.302-0.533,0.462-0.799c0.154,0.274,0.417,0.536,0.446,0.823
			C24.763,45.199,24.966,47.61,25.178,49.957z"/>
		<path fill-rule="evenodd" clip-rule="evenodd" fill="#2C798E" d="M45.721,67.603c0-2.136-0.014-4.112,0.024-6.088
			c0.003-0.171,0.332-0.46,0.528-0.478c0.635-0.053,1.286-0.059,1.919,0.014c1.926,0.218,2.845,1.258,2.871,3.179
			c0.025,1.811-1.004,2.997-2.851,3.224C47.438,67.548,46.652,67.55,45.721,67.603z M47.148,66.154
			c0.899,0.109,1.706,0.098,2.208-0.742c0.455-0.762,0.466-1.572,0.015-2.319c-0.502-0.831-1.333-0.801-2.224-0.682
			C47.148,63.646,47.148,64.857,47.148,66.154z"/>
		<path fill-rule="evenodd" clip-rule="evenodd" fill="#2C798E" d="M76.588,67.616c0-1.706,0-3.271-0.001-4.838
			c0-1.792,0-1.792,1.814-1.767c2.648,0.036,3.898,1.582,3.373,4.175c-0.233,1.156-1.173,2.074-2.396,2.235
			C78.517,67.537,77.642,67.547,76.588,67.616z M77.975,62.398c0,1.295,0,2.508,0,3.741c0.896,0.153,1.699,0.104,2.206-0.7
			c0.468-0.742,0.489-1.55,0.034-2.323C79.708,62.251,78.881,62.317,77.975,62.398z"/>
		<path fill-rule="evenodd" clip-rule="evenodd" fill="#2C798E" d="M22.39,49.994c-0.235,2.31-0.46,4.626-0.722,6.938
			c-0.025,0.219-0.283,0.411-0.434,0.615c-0.108-0.207-0.291-0.406-0.312-0.622c-0.224-2.23-0.516-4.46-0.594-6.696
			c-0.055-1.562,0.185-3.136,0.311-4.703c0.07-0.87,0.16-1.74,0.284-2.603c0.035-0.247,0.217-0.474,0.331-0.709
			c0.137,0.215,0.369,0.419,0.396,0.648c0.192,1.59,0.344,3.185,0.507,4.778C22.235,48.42,22.311,49.202,22.39,49.994z"/>
		<path fill-rule="evenodd" clip-rule="evenodd" fill="#2C798E" d="M25.243,64.322c-0.016-2.278,1.31-3.646,3.239-3.346
			c1.054,0.162,1.85,0.749,2.068,1.754c0.204,0.937,0.282,1.975,0.092,2.902c-0.297,1.445-1.54,2.136-3.053,1.97
			c-1.235-0.135-2.192-1.202-2.311-2.582C25.258,64.789,25.255,64.556,25.243,64.322z M29.477,64.32
			c0-0.116,0.006-0.233-0.001-0.349c-0.069-1.007-0.63-1.677-1.412-1.692c-0.805-0.018-1.287,0.492-1.422,1.546
			c-0.041,0.311-0.048,0.637-0.006,0.947c0.131,0.954,0.75,1.596,1.458,1.554c0.699-0.041,1.303-0.762,1.384-1.657
			C29.488,64.553,29.479,64.437,29.477,64.32z"/>
		<path fill-rule="evenodd" clip-rule="evenodd" fill="#2C798E" d="M62.952,64.272c0.003-2.335,1.453-3.699,3.462-3.255
			c1.209,0.269,1.979,1.198,2.148,2.854c0.121,1.184-0.112,2.354-1.094,3.165c-0.854,0.705-1.884,0.787-2.882,0.354
			C63.238,66.805,62.972,65.589,62.952,64.272z M67.209,64.082c-0.139-0.571-0.138-1.389-1.004-1.72
			c-0.983-0.376-1.698,0.24-1.91,1.623c-0.182,1.186,0.493,2.312,1.407,2.343C66.573,66.359,67.221,65.464,67.209,64.082z"/>
		<path fill-rule="evenodd" clip-rule="evenodd" fill="#2C798E" d="M24.179,61.991c-0.368,0.34-0.66,0.609-0.854,0.789
			c-0.602-0.192-1.076-0.422-1.569-0.473c-0.267-0.027-0.565,0.25-0.849,0.391c0.209,0.231,0.377,0.546,0.636,0.675
			c0.383,0.189,0.837,0.229,1.251,0.362c1.113,0.358,1.504,0.893,1.468,1.972c-0.032,0.97-0.509,1.518-1.574,1.813
			c-1.314,0.364-2.594-0.022-3.502-1.095c0.303-0.262,0.606-0.523,0.775-0.669c0.788,0.218,1.431,0.469,2.094,0.537
			c0.242,0.025,0.529-0.388,0.795-0.601c-0.217-0.233-0.393-0.56-0.66-0.683c-0.47-0.215-1.003-0.285-1.497-0.454
			c-0.804-0.273-1.228-0.815-1.214-1.707c0.014-0.884,0.449-1.448,1.236-1.715C21.981,60.704,23.118,60.958,24.179,61.991z"/>
		<path fill-rule="evenodd" clip-rule="evenodd" fill="#2C798E" d="M69.866,61.064c0.384,0,0.748,0,1.225,0c0,0.738,0,1.458,0,2.178
			c0,0.526-0.028,1.054,0.009,1.577c0.066,0.906,0.688,1.573,1.378,1.529c0.686-0.044,1.192-0.67,1.211-1.577
			c0.023-1.196,0.005-2.394,0.005-3.701c0.432-0.021,0.819-0.042,1.212-0.062c0,1.657,0.125,3.26-0.04,4.832
			c-0.127,1.201-1.224,1.797-2.642,1.764c-1.175-0.026-2.232-0.796-2.328-1.956C69.773,64.146,69.866,62.629,69.866,61.064z"/>
		<path fill-rule="evenodd" clip-rule="evenodd" fill="#2C798E" d="M32.143,61.05c0.447,0,0.788,0,1.249,0
			c0,1.102-0.001,2.167,0,3.233c0.002,1.284,0.475,2.043,1.287,2.068c0.845,0.026,1.327-0.73,1.329-2.1c0.001-1.043,0-2.087,0-3.185
			c0.44,0,0.806,0,1.382,0c-0.08,1.625-0.031,3.255-0.277,4.84c-0.198,1.276-1.35,1.835-2.845,1.696
			c-1.071-0.099-2.044-0.987-2.106-2.117C32.083,64.036,32.143,62.579,32.143,61.05z"/>
		<path fill-rule="evenodd" clip-rule="evenodd" fill="#2C798E" d="M18.681,43.424c0.064,0.232,0.157,0.461,0.188,0.697
			c0.251,1.905,0.613,3.807,0.693,5.719c0.057,1.347-0.271,2.71-0.434,4.066c-0.079,0.666-0.152,1.333-0.271,1.992
			c-0.034,0.186-0.224,0.342-0.341,0.512c-0.105-0.151-0.285-0.295-0.303-0.456c-0.321-2.944-0.934-5.875-0.386-8.861
			c0.142-0.771,0.183-1.56,0.287-2.337c0.059-0.441,0.151-0.877,0.228-1.316C18.455,43.435,18.568,43.429,18.681,43.424z"/>
		<path fill-rule="evenodd" clip-rule="evenodd" fill="#2C798E" d="M57.33,62.415c-0.347,0.172-0.703,0.348-1.047,0.518
			c-1.011-0.808-1.717-0.861-2.302-0.19c-0.68,0.779-0.635,2.454,0.083,3.151c0.669,0.649,1.186,0.567,2.263-0.374
			c0.336,0.201,0.682,0.407,1.053,0.628c-0.529,1.104-1.413,1.504-2.56,1.459c-1.093-0.042-1.909-0.538-2.328-1.543
			c-0.597-1.432-0.541-2.832,0.388-4.139C53.895,60.498,56.753,60.62,57.33,62.415z"/>
		<path fill-rule="evenodd" clip-rule="evenodd" fill="#2C798E" d="M62.279,67.521c-1.273,0-2.49,0-3.767,0c0-2.13,0-4.247,0-6.437
			c0.368,0,0.756,0,1.251,0c0,1.693,0,3.372,0,5.11c0.888,0,1.669,0,2.516,0C62.279,66.642,62.279,67.03,62.279,67.521z"/>
		<path fill-rule="evenodd" clip-rule="evenodd" fill="#2C798E" d="M16.038,54.212c-1.014-1.175-0.997-7.337-0.007-8.417
			C16.959,48.6,16.949,51.336,16.038,54.212z"/>
	</g>
</g>
</svg>
