<?xml version="1.0" encoding="utf-8"?>
<!-- Generator: Adobe Illustrator 16.0.0, SVG Export Plug-In . SVG Version: 6.00 Build 0)  -->
<!DOCTYPE svg PUBLIC "-//W3C//DTD SVG 1.1//EN" "http://www.w3.org/Graphics/SVG/1.1/DTD/svg11.dtd">
<svg version="1.1" id="Layer_1" xmlns="http://www.w3.org/2000/svg" xmlns:xlink="http://www.w3.org/1999/xlink" x="0px" y="0px"
	 width="100px" height="100px" viewBox="0 0 100 100" enable-background="new 0 0 100 100" xml:space="preserve">
<path fill="#2C798E" d="M50,0C22.386,0,0,22.386,0,50s22.386,50,50,50s50-22.386,50-50S77.614,0,50,0z M50,96
	C24.595,96,4,75.405,4,50S24.595,4,50,4s46,20.595,46,46S75.405,96,50,96z"/>
<g id="Cmh2jL_1_">
	<g>
		<path fill-rule="evenodd" clip-rule="evenodd" fill="#2C798E" d="M51.898,33.568c-1.961,3.451-3.828,6.738-5.697,10.024
			c-1.425,2.503-2.874,4.993-4.265,7.516c-0.375,0.68-0.821,0.901-1.592,0.897c-6.24-0.034-12.48,0.015-18.72-0.048
			c-1.229-0.012-1.751,0.293-1.559,1.558c0.069,0.457,0.011,0.934,0.011,1.162c1.116-0.049,2.208-0.231,3.253-0.085
			c0.517,0.073,1.066,0.675,1.395,1.174c0.927,1.409,0.649,3.897-0.456,4.974c-1.01,0.984-2.467,1.009-3.921,0.136
			c-0.53,0.199-0.992,0.373-1.688,0.634c0-2.102,0.112-3.952-0.028-5.784c-0.181-2.368,0.429-4.393,1.663-6.435
			c2.977-4.927,5.736-9.985,8.628-14.965c0.226-0.389,0.804-0.814,1.222-0.817c7.029-0.049,14.06-0.035,21.089-0.031
			C51.385,33.478,51.537,33.518,51.898,33.568z M19.995,57.931c0.02,1.39,0.828,2.389,1.939,2.397
			c1.086,0.008,1.908-1.036,1.904-2.418c-0.004-1.468-0.807-2.436-2.018-2.435C20.732,55.477,19.975,56.495,19.995,57.931z"/>
		<path fill-rule="evenodd" clip-rule="evenodd" fill="#2C798E" d="M52.472,33.487c0.884,0,1.733,0,2.722,0c0,2.216,0,4.397,0,6.56
			c0.211,0.021,0.32,0.063,0.352,0.031c1.812-1.923,4.008-2.275,6.388-1.403c2.557,0.938,3.7,3.05,3.861,5.597
			c0.094,1.494-0.04,3.126-0.563,4.511c-1.545,4.084-6.528,4.996-9.693,1.913c-0.077-0.075-0.193-0.109-0.422-0.236
			c-0.059,0.521-0.108,0.967-0.167,1.496c-0.794,0-1.597,0-2.477,0C52.472,45.811,52.472,39.683,52.472,33.487z M63.104,45.151
			c-0.14-0.598-0.243-1.428-0.529-2.188c-0.625-1.662-2.013-2.599-3.603-2.558c-1.775,0.047-3.17,1.01-3.565,2.87
			c-0.269,1.265-0.303,2.672-0.044,3.934c0.418,2.044,1.983,3.089,3.938,3.009c1.884-0.078,3.146-1.241,3.566-3.315
			C62.969,46.403,63.007,45.891,63.104,45.151z"/>
		<path fill-rule="evenodd" clip-rule="evenodd" fill="#2C798E" d="M80.394,42.916c-0.967,0-1.856,0-2.75,0
			c-1.011-2.077-2.078-2.723-4.035-2.441c-1.713,0.247-2.862,1.397-3.121,3.501c-0.145,1.183-0.065,2.454,0.211,3.613
			c0.41,1.721,1.617,2.57,3.224,2.619c1.74,0.054,2.657-0.605,3.453-2.325c0.148-0.321,0.611-0.627,0.973-0.69
			c0.638-0.111,1.31-0.031,1.99-0.031c-0.725,3.683-3.163,5.554-6.685,5.265c-3.661-0.3-5.988-2.648-6.13-6.137
			c-0.101-2.453,0.263-4.732,2.179-6.5c3.268-3.015,9.253-1.609,10.592,2.49C80.352,42.455,80.354,42.648,80.394,42.916z"/>
		<path fill-rule="evenodd" clip-rule="evenodd" fill="#2C798E" d="M70.822,61.167c0-1.25,0.01-2.431-0.002-3.611
			c-0.015-1.494-0.404-2.079-1.351-2.074c-0.951,0.004-1.397,0.651-1.403,2.05c-0.004,0.908,0.003,1.817-0.001,2.726
			c-0.003,0.505,0.101,1.037-0.708,1.075c-0.906,0.041-0.793-0.585-0.807-1.109c-0.027-1.065-0.046-2.134-0.002-3.198
			c0.03-0.747-0.07-1.372-0.925-1.521c-0.832-0.144-1.472,0.281-1.613,1.043c-0.192,1.032-0.193,2.105-0.214,3.162
			c-0.03,1.608-0.007,1.635-1.646,1.645c-0.878,0.006-1.758-0.096-2.593-0.259c-0.989,0.101-1.985,0.33-2.964,0.268
			c-1.061-0.068-1.568-0.908-1.558-1.909c0.011-0.94,0.475-1.668,1.497-1.859c0.697-0.13,1.423-0.165,2.09-0.382
			c0.376-0.122,0.661-0.526,0.987-0.804c-0.347-0.312-0.674-0.849-1.044-0.88c-0.523-0.043-1.092,0.256-1.617,0.466
			c-0.498,0.2-0.966,0.474-1.652,0.818c0.33-2.002,1.423-2.646,3.547-2.458c1.501,0.133,2.146,0.843,2.154,2.377
			c0.005,0.829,0.003,1.659-0.002,2.488c-0.003,0.576-0.031,1.151,0.811,1.129c0.776-0.021,0.715-0.561,0.713-1.087
			c-0.005-1.532-0.002-3.065-0.002-4.875c0.62,0.215,1.064,0.369,1.62,0.562c1.552-0.937,2.271-0.904,3.755,0.282
			c0.35-0.246,0.673-0.558,1.059-0.73c1.719-0.77,3.198,0.23,3.188,2.119c-0.007,1.225,0.007,2.448-0.004,3.673
			C72.124,61.354,72.114,61.354,70.822,61.167z M59.446,58.009c-0.721,0.132-1.417,0.151-2.014,0.406
			c-0.386,0.164-0.624,0.672-0.928,1.026c0.369,0.288,0.705,0.753,1.116,0.833C58.966,60.536,59.704,59.621,59.446,58.009z"/>
		<path fill-rule="evenodd" clip-rule="evenodd" fill="#2C798E" d="M33.347,54.322c0.696,0.296,1.151,0.488,1.507,0.64
			c0.731-0.201,1.492-0.554,2.269-0.592c1.19-0.058,1.962,0.624,2.065,1.83c0.127,1.49,0.133,2.998,0.085,4.494
			c-0.033,1.031-0.799,0.513-1.513,0.574c0-1.429-0.006-2.761,0.002-4.093c0.006-0.929-0.214-1.672-1.338-1.69
			c-0.894-0.016-1.559,0.665-1.589,1.705c-0.038,1.333-0.009,2.669-0.009,4.175c-1.513-0.287-3.017,0.761-4.269-0.447
			c-0.76,0.204-1.463,0.489-2.188,0.565c-1.211,0.128-2.233-0.639-2.375-1.641c-0.178-1.247,0.396-2.009,1.787-2.313
			c0.654-0.143,1.342-0.157,1.975-0.355c0.313-0.098,0.786-0.533,0.746-0.725c-0.071-0.343-0.484-0.878-0.738-0.868
			c-0.652,0.023-1.307,0.268-1.938,0.487c-0.473,0.165-0.912,0.43-1.366,0.65c-0.126-0.169-0.252-0.337-0.378-0.505
			c0.449-0.521,0.821-1.365,1.363-1.494c1.063-0.254,2.255-0.275,3.324-0.054c0.476,0.099,1.003,0.978,1.115,1.575
			c0.185,0.992,0.063,2.044,0.049,3.07c-0.008,0.562,0.052,1.144,0.77,0.987c0.272-0.06,0.601-0.624,0.616-0.971
			C33.385,57.796,33.347,56.259,33.347,54.322z M30.438,57.992c-0.752,0.138-1.479,0.163-2.109,0.425
			c-0.377,0.156-0.601,0.681-0.893,1.04c0.369,0.283,0.707,0.745,1.113,0.816C29.911,60.515,30.578,59.714,30.438,57.992z"/>
		<path fill-rule="evenodd" clip-rule="evenodd" fill="#2C798E" d="M45.5,55.115c0-1.115,0-2.083,0-3.132c0.506,0,0.915,0,1.391,0
			c0,3.098,0,6.152,0,9.422c-0.613-0.17-1.119-0.31-1.751-0.484c-1.473,0.836-3.08,0.727-4.018-0.381
			c-1.1-1.298-1.145-3.849-0.093-5.212C41.949,54.135,43.418,54.023,45.5,55.115z M45.515,57.922c0.01-1.66-1.005-2.746-2.275-2.435
			c-1.083,0.266-1.712,1.633-1.446,3.139c0.188,1.059,0.994,1.763,1.944,1.697C44.791,60.25,45.507,59.283,45.515,57.922z"/>
		<path fill-rule="evenodd" clip-rule="evenodd" fill="#2C798E" d="M75.006,60.575c0,1.18,0,2.182,0,3.229c-0.499,0-0.88,0-1.333,0
			c0-3.046,0-6.068,0-9.342c0.55,0.14,1.038,0.264,1.688,0.428c1.483-0.862,3.092-0.755,4.074,0.407
			c1.101,1.302,1.084,4.041-0.033,5.31C78.416,61.726,76.884,61.767,75.006,60.575z M76.922,55.487
			c-1.208-0.01-1.872,0.805-1.887,2.315c-0.015,1.514,0.708,2.506,1.842,2.53s1.983-1.033,1.977-2.461
			C78.848,56.547,77.997,55.496,76.922,55.487z"/>
		<path fill-rule="evenodd" clip-rule="evenodd" fill="#2C798E" d="M54.198,56.985c-0.582-0.336-1.022-0.675-1.521-0.857
			c-0.651-0.238-1.441-0.643-2.005-0.46c-1.24,0.402-1.321,1.663-1.097,2.693c0.151,0.696,0.719,1.486,1.33,1.852
			c0.722,0.433,1.485-0.096,1.82-0.849c0.36-0.807,0.88-0.725,1.516-0.535c-0.198,1.769-1.399,2.768-3.141,2.662
			c-1.868-0.113-3.112-1.51-3.122-3.502c-0.01-2.14,1.271-3.554,3.203-3.669C52.806,54.224,54.404,55.235,54.198,56.985z"/>
	</g>
</g>
</svg>
