<?xml version="1.0" encoding="utf-8"?>
<!-- Generator: Adobe Illustrator 16.0.0, SVG Export Plug-In . SVG Version: 6.00 Build 0)  -->
<!DOCTYPE svg PUBLIC "-//W3C//DTD SVG 1.1//EN" "http://www.w3.org/Graphics/SVG/1.1/DTD/svg11.dtd">
<svg version="1.1" id="Layer_1" xmlns="http://www.w3.org/2000/svg" xmlns:xlink="http://www.w3.org/1999/xlink" x="0px" y="0px"
	 width="100px" height="100px" viewBox="0 0 100 100" enable-background="new 0 0 100 100" xml:space="preserve">
<path fill="#2C798E" d="M50,0C22.386,0,0,22.386,0,50s22.386,50,50,50s50-22.386,50-50S77.614,0,50,0z M50,96
	C24.595,96,4,75.405,4,50S24.595,4,50,4s46,20.595,46,46S75.405,96,50,96z"/>
<path fill="#2C798E" d="M31.938,54.076V42.982h9.406l-0.031-9.781c0,0,0.146-11.188,11.625-13c0,0,7.5-0.188,11.125,0.438
	l-0.125,9.938c-2.979-0.067-2.983-0.063-5.792,0.125c-3.654,0.245-6.083,0.5-5.521,7.625v4.375h11.312l-1.812,11.125h-9.5v28.25
	H41.312V53.951h-9.375"/>
</svg>
