<?xml version="1.0" encoding="utf-8"?>
<!-- Generator: Adobe Illustrator 16.0.0, SVG Export Plug-In . SVG Version: 6.00 Build 0)  -->
<!DOCTYPE svg PUBLIC "-//W3C//DTD SVG 1.1//EN" "http://www.w3.org/Graphics/SVG/1.1/DTD/svg11.dtd">
<svg version="1.1" id="Layer_1" xmlns="http://www.w3.org/2000/svg" xmlns:xlink="http://www.w3.org/1999/xlink" x="0px" y="0px"
	 width="100px" height="100px" viewBox="0 0 100 100" enable-background="new 0 0 100 100" xml:space="preserve">
<path fill="#2C798E" d="M50,0C22.386,0,0,22.386,0,50s22.386,50,50,50s50-22.386,50-50S77.614,0,50,0z M50,96
	C24.595,96,4,75.405,4,50S24.595,4,50,4s46,20.595,46,46S75.405,96,50,96z"/>
<g id="_x34_QEMpC_1_">
	<g>
		<path fill-rule="evenodd" clip-rule="evenodd" fill="#2C798E" d="M51.078,42.473c0,0.533,0,0.916,0,1.299
			c-0.002,6.437-0.012,12.872,0.006,19.308c0.002,0.875,0.055,1.764,0.225,2.617c0.754,3.793,3.428,5.955,7.387,6.066
			c3.25,0.088,6.297-0.799,9.301-1.904c0.756-0.279,1.502-0.582,2.357-0.916c0.033,0.385,0.076,0.662,0.078,0.938
			c0.012,2.928-0.004,5.852,0.037,8.775c0.012,0.709-0.211,1.021-0.912,1.205c-5.686,1.479-11.438,2.441-17.334,2.242
			c-3.408-0.115-6.74-0.648-9.748-2.383c-3.665-2.115-5.503-5.373-5.531-9.562c-0.058-8.713-0.022-17.424-0.026-26.136
			c0-0.479,0-0.958,0-1.562c-2.978,0-5.82,0-8.787,0c0-1.381,0-2.64,0-3.898c0-1.397,0.035-2.796-0.015-4.192
			c-0.023-0.651,0.2-0.972,0.789-1.249c3.796-1.784,7.061-4.253,9.557-7.663c2.351-3.211,3.593-6.812,3.723-10.793
			c0.006-0.158,0.036-0.316,0.063-0.547c2.899,0,5.771,0,8.772,0c0,5.818,0,11.615,0,17.554c5.92,0,11.717,0,17.607,0
			c0.035,0.479,0.078,0.823,0.08,1.168c0.012,2.861-0.021,5.722,0.037,8.582c0.018,0.902-0.322,1.071-1.137,1.065
			c-5.072-0.031-10.141-0.015-15.213-0.014C52.01,42.473,51.623,42.473,51.078,42.473z"/>
	</g>
</g>
</svg>
