<?xml version="1.0" encoding="utf-8"?>
<!-- Generator: Adobe Illustrator 16.0.0, SVG Export Plug-In . SVG Version: 6.00 Build 0)  -->
<!DOCTYPE svg PUBLIC "-//W3C//DTD SVG 1.1//EN" "http://www.w3.org/Graphics/SVG/1.1/DTD/svg11.dtd">
<svg version="1.1" id="Layer_1" xmlns="http://www.w3.org/2000/svg" xmlns:xlink="http://www.w3.org/1999/xlink" x="0px" y="0px"
	 width="100px" height="100px" viewBox="0 0 100 100" enable-background="new 0 0 100 100" xml:space="preserve">
<path fill="#2C798E" d="M50,0C22.386,0,0,22.386,0,50s22.386,50,50,50s50-22.386,50-50S77.614,0,50,0z M50,96
	C24.595,96,4,75.405,4,50S24.595,4,50,4s46,20.595,46,46S75.405,96,50,96z"/>
<g id="Z5vyKV_1_">
	<g>
		<path fill-rule="evenodd" clip-rule="evenodd" fill="#2C798E" d="M18.933,73.079c7.167,0.524,13.497-1.295,19.401-5.738
			c-6.155-0.593-10.319-3.498-12.667-9.293c1.997,0,3.809,0,5.621,0c0.041-0.141,0.081-0.28,0.122-0.42
			c-2.988-0.826-5.535-2.328-7.476-4.712c-1.951-2.396-2.943-5.156-3.015-8.34c1.006,0.356,1.938,0.755,2.908,1.012
			c0.94,0.249,1.919,0.353,2.951,0.417c-5.812-4.942-7.261-10.793-4.082-17.912c7.419,8.623,16.619,13.332,27.887,14.073
			c0-1.989-0.275-3.873,0.052-5.646c0.951-5.153,4.06-8.658,9.027-10.266c4.891-1.583,9.356-0.522,13.188,2.919
			c0.59,0.53,1.093,0.693,1.796,0.445c2.4-0.846,4.802-1.687,7.199-2.527c-0.99,2.766-2.888,4.957-5.436,6.65
			c0.062,0.125,0.123,0.25,0.185,0.375c2.26-0.58,4.52-1.159,6.779-1.739c0.063,0.056,0.126,0.112,0.188,0.168
			c-1.401,1.483-2.668,3.134-4.243,4.402c-1.53,1.231-2.053,2.499-2.184,4.506c-1.051,16.128-8.458,28.249-23.601,34.592
			c-11.491,4.814-22.962,3.74-33.889-2.362c-0.155-0.086-0.31-0.174-0.457-0.272C19.135,73.376,19.104,73.306,18.933,73.079z"/>
	</g>
</g>
</svg>
